<svg xmlns="http://www.w3.org/2000/svg" xml:space="preserve" width="3056.2551" height="2100.042" viewBox="0 0 3056.2552 2100.042"><defs><clipPath id="a" clipPathUnits="userSpaceOnUse"><path d="M0 2324.409h3458.268V0H0Z"/></clipPath></defs><g clip-path="url(#a)" transform="matrix(1.33333 0 0 -1.33333 -773.198 2632.134)"><path d="M0 0c0-406.507-329.539-736.045-736.045-736.045-406.507 0-736.046 329.538-736.046 736.045s329.539 736.045 736.046 736.045C-329.539 736.045 0 406.507 0 0" style="fill:#252e61;fill-opacity:1;fill-rule:nonzero;stroke:none" transform="translate(2463.112 1135.114)"/><path d="M0 0c0-339.767-275.435-615.202-615.202-615.202S-1230.404-339.767-1230.404 0s275.435 615.202 615.202 615.202S0 339.767 0 0" style="fill:#e83b63;fill-opacity:1;fill-rule:nonzero;stroke:none" transform="translate(2342.269 1135.114)"/><path d="M0 0c0-318.194-257.948-576.142-576.142-576.142S-1152.283-318.194-1152.283 0s257.947 576.142 576.141 576.142S0 318.194 0 0" style="fill:#fff;fill-opacity:1;fill-rule:nonzero;stroke:none" transform="translate(2303.209 1135.114)"/><path d="M0 0c-8.67 7.506-30.007 9.905-44.396 10.659l-14.195.327s.119 7.51-3.255 4.068c0 0-25.633-23.192-22.378-52.487 0 0 0-8.951 3.662-10.172s11.799 13.02 27.668 39.467c0 0 18.716-4.475 51.267-.406 0 0 9.358 1.627 1.627 8.544" style="fill:#e83b63;fill-opacity:1;fill-rule:nonzero;stroke:none" transform="translate(2057.046 689.174)"/><path d="M0 0c-8.67 7.506-30.007 9.905-44.396 10.659l-14.195.327s.119 7.51-3.255 4.068c0 0-25.633-23.192-22.378-52.487 0 0 0-8.951 3.662-10.172s11.799 13.02 27.668 39.467c0 0 18.716-4.475 51.267-.406 0 0 9.358 1.627 1.627 8.544" style="fill:#e83b63;fill-opacity:1;fill-rule:nonzero;stroke:none" transform="translate(2027.751 740.44)"/><path d="M0 0c-8.671 7.506-30.007 9.905-44.396 10.659l-14.195.327s.119 7.51-3.255 4.068c0 0-25.633-23.192-22.378-52.487 0 0 0-8.951 3.662-10.172s11.799 13.02 27.668 39.467c0 0 18.716-4.475 51.267-.406 0 0 9.358 1.627 1.627 8.544" style="fill:#e83b63;fill-opacity:1;fill-rule:nonzero;stroke:none" transform="translate(1998.456 788.046)"/><path d="M0 0c-8.671 7.506-30.007 9.905-44.396 10.659l-14.195.327s.119 7.51-3.255 4.068c0 0-25.633-23.192-22.378-52.487 0 0 0-8.951 3.662-10.172s11.799 13.02 27.668 39.467c0 0 18.716-4.475 51.267-.406 0 0 9.358 1.627 1.627 8.544" style="fill:#e83b63;fill-opacity:1;fill-rule:nonzero;stroke:none" transform="translate(1972.822 842.975)"/><path d="M0 0a232 232 0 0 1-1.693 3.94l-.005.01c-12.118 27.478-22.817 36.332-28.216 39.182l-3.721 1.353s-.407-.26-.946-.745c-.587-3.431-2.804-19.403 3.393-34.66 2.656-5.873 6.372-11.767 11.658-16.675 0 0-2.102-10.443.542-14.376 0 0 50.178-5.659 62.668 11.775 1.85 3.243 2.519 6.02 2.667 6.748.008.066.03.126.037.193 0 0-27.125 5.696-46.384 3.255" style="fill:#e83b63;fill-opacity:1;fill-rule:nonzero;stroke:none" transform="translate(1454.729 684.156)"/><path d="M0 0a232 232 0 0 1-1.693 3.94l-.005.01c-12.118 27.478-22.817 36.332-28.216 39.182l-3.721 1.353s-.407-.26-.946-.745c-.587-3.431-2.804-19.403 3.393-34.66 2.655-5.873 6.372-11.767 11.658-16.675 0 0-2.102-10.443.542-14.376 0 0 50.178-5.659 62.667 11.775 1.851 3.243 2.52 6.02 2.668 6.748.008.066.029.126.037.193 0 0-27.125 5.696-46.384 3.255" style="fill:#e83b63;fill-opacity:1;fill-rule:nonzero;stroke:none" transform="translate(1484.024 731.76)"/><path d="M0 0a232 232 0 0 1-1.693 3.94l-.005.01c-12.118 27.478-22.817 36.332-28.216 39.182l-3.721 1.353s-.407-.26-.946-.745c-.587-3.431-2.804-19.403 3.393-34.66 2.655-5.873 6.372-11.767 11.658-16.675 0 0-2.102-10.443.542-14.376 0 0 50.178-5.659 62.667 11.775 1.851 3.243 2.52 6.02 2.668 6.748.008.066.029.126.037.193 0 0-27.125 5.696-46.384 3.255" style="fill:#e83b63;fill-opacity:1;fill-rule:nonzero;stroke:none" transform="translate(1509.658 783.028)"/><path d="m0 0 9.872-6.941c2.02-1.42 4.039-1.942 6.061-1.556q3.031.574 5 3.372 2.177 3.09 1.198 5.969c-.651 1.913-1.88 3.508-3.675 4.77l-9.711 6.827zm-13.584-19.315 10.466-7.363q3.323-2.333 6.474-1.942 3.154.387 5.237 3.348c1.325 1.892 1.758 3.894 1.304 6.022-.458 2.12-1.76 3.941-3.912 5.453l-10.5 7.381zm-12.411-1.358L5.591 24.249l17.507-12.308q4.442-3.127 6.723-6.105 2.28-2.982 2.362-7.413.08-4.434-2.698-8.386-2.614-3.716-6.718-4.939c-2.736-.815-5.555-.575-8.455.708q4.16-4.156 4.468-8.897c.204-3.161-.665-6.119-2.611-8.883-2.435-3.472-5.618-5.582-9.548-6.344Q.73-39.461-6.348-34.488z" style="fill:#fff;fill-opacity:1;fill-rule:nonzero;stroke:none" transform="translate(1341.248 598.186)"/><path d="m0 0 4.754 25.333-18.796-17.637Zm5.361-26.881-9.279 5.085L-1.48-8.225-20.001 1.924l-10.06-9.398-7.408 4.062L4.905 35.986l10.689-5.857z" style="fill:#fff;fill-opacity:1;fill-rule:nonzero;stroke:none" transform="translate(1411.475 541.469)"/><path d="m0 0 9.672-1.781q-1.526-8.206 9.147-12.62 4.867-2.012 8.288-1.166 3.42.848 4.604 3.712.862 2.082.404 4.342c-.307 1.502-1.623 3.132-3.948 4.874l-8.658 6.54q-4.443 3.365-6.138 6.005t-1.881 6.24q-.185 3.602 1.23 7.02 2.814 6.806 9.57 8.822c4.502 1.348 9.382.93 14.635-1.241q6.543-2.71 10.508-7.699c2.645-3.333 3.712-6.934 3.21-10.818l-9.591 1.438q.374 6.593-6.986 9.641c-2.848 1.176-5.271 1.484-7.261.912q-2.986-.853-4.125-3.605-1.802-4.346 4.541-9.019l7.732-5.722c4.686-3.479 7.391-6.866 8.116-10.17.72-3.301.443-6.505-.839-9.602q-3.091-7.47-10.499-9.437-7.408-1.965-16.366 1.742-7.55 3.122-11.91 8.625C.545-9.298-.606-4.971 0 0" style="fill:#fff;fill-opacity:1;fill-rule:nonzero;stroke:none" transform="translate(1446.5 515.092)"/><path d="m0 0-34.214 10.127 15.588 52.658 33.871-10.031-2.321-7.828-24.378 7.217-4.227-14.269 19.599-5.807-2.262-7.639-19.599 5.804-4.363-14.733L2.423 8.175Z" style="fill:#fff;fill-opacity:1;fill-rule:nonzero;stroke:none" transform="translate(1549.382 464.48)"/><path d="m0 0 11.871-2.181q3.642-.676 6.158 1.115 2.517 1.787 3.134 5.15.684 3.723-1.405 5.922c-1.397 1.47-3.172 2.407-5.336 2.8L2.75 14.955Zm-4.264-23.234 12.58-2.306q3.997-.736 6.698.936 2.699 1.672 3.355 5.232c.418 2.271-.025 4.27-1.331 6.008-1.301 1.745-3.247 2.85-5.83 3.326L-1.416-7.717zm-10.713-6.412 9.924 54.006 21.051-3.865c3.561-.651 6.446-1.567 8.661-2.736q3.316-1.755 5.242-5.747 1.926-3.997 1.052-8.743-.82-4.474-4.039-7.296-3.219-2.827-7.977-2.893c3.678-1.355 6.269-3.429 7.777-6.211 1.505-2.79 1.954-5.84 1.34-9.166-.763-4.166-2.769-7.42-6.023-9.752q-4.875-3.501-13.384-1.938z" style="fill:#fff;fill-opacity:1;fill-rule:nonzero;stroke:none" transform="translate(1598.183 486.072)"/><path d="m0 0-6.231 25.011-9.738-23.863Zm16.069-22.208-10.549.759L2.081-8.096-18.987-6.58l-5.23-12.734-8.427.604 22.112 53.47 12.159-.877z" style="fill:#fff;fill-opacity:1;fill-rule:nonzero;stroke:none" transform="translate(1685.611 463.839)"/><path d="m0 0-33.776-1.048-1.71 54.886 10.418.325 1.426-45.924 23.363.733z" style="fill:#fff;fill-opacity:1;fill-rule:nonzero;stroke:none" transform="translate(1768.085 442.518)"/><path d="m0 0-33.519-4.306-7.005 54.464 10.335 1.331 5.857-45.567 23.184 2.979z" style="fill:#fff;fill-opacity:1;fill-rule:nonzero;stroke:none" transform="translate(1834.772 449.7)"/><path d="m0 0 9.069 1.709c1.041-5.432.325-10.377-2.139-14.844q-3.7-6.702-12.244-9.305-7.194-2.193-12.785.061-5.58 2.246-9.895 7.71-4.313 5.451-6.587 12.92-3.661 12.004-.257 21.267c2.267 6.169 6.726 10.271 13.371 12.295q7.81 2.382 14.472-.848Q-.333 27.74 3.748 19.182l-8.497-3.597q-6.046 11.152-14.319 8.632-5.31-1.619-6.748-7.459-1.436-5.847 1.423-15.235 2.909-9.542 7.55-13.453 4.635-3.902 9.834-2.321c2.771.844 4.795 2.657 6.083 5.429Q1.002-4.655 0 0" style="fill:#fff;fill-opacity:1;fill-rule:nonzero;stroke:none" transform="translate(1935.453 493.546)"/><path d="m0 0-31.144-13.121-21.321 50.609 9.602 4.045L-25.025-.808l21.542 9.076z" style="fill:#fff;fill-opacity:1;fill-rule:nonzero;stroke:none" transform="translate(2012.843 503.054)"/><path d="m0 0 16.997-30.915c2.303-4.184 3.601-7.66 3.902-10.432.304-2.775-.447-5.718-2.239-8.833-1.792-3.111-4.628-5.736-8.507-7.864q-5.887-3.24-10.84-3.207c-3.3.018-6.179.955-8.636 2.8q-3.68 2.772-6.823 8.489l-17.348 31.549 8.848 4.867 17.004-30.919c2.324-4.231 4.738-6.519 7.245-6.873 2.503-.351 4.931.114 7.281 1.409q4.052 2.23 5.314 5.7c.84 2.314.147 5.489-2.074 9.534L-6.877-3.776Z" style="fill:#fff;fill-opacity:1;fill-rule:nonzero;stroke:none" transform="translate(2049.512 583.95)"/><path d="m0 0 10.464 7.363c2.217 1.559 3.554 3.372 4.019 5.436q.698 3.1-1.384 6.061c-1.327 1.885-3.068 2.968-5.221 3.262-2.156.286-4.305-.326-6.458-1.838l-10.493-7.389Zm-13.589 19.314 9.87 6.945c2.021 1.42 3.19 3.147 3.515 5.178q.49 3.049-1.484 5.844-2.173 3.094-5.21 3.147c-2.028.032-3.937-.583-5.736-1.849l-9.706-6.827zm10.671-31.455L-34.52 32.771l17.501 12.316q4.443 3.126 8.018 4.267 3.579 1.14 7.774-.283 4.204-1.427 6.981-5.375c1.745-2.478 2.535-5.142 2.378-7.992s-1.334-5.425-3.522-7.717q5.316 2.51 9.88 1.198c3.044-.877 5.536-2.693 7.481-5.458q3.663-5.197 2.743-11.136-.917-5.927-7.989-10.907Z" style="fill:#fff;fill-opacity:1;fill-rule:nonzero;stroke:none" transform="translate(2110.814 567.918)"/><path d="M0 0c-2.228.092-4.442.186-6.677.277L-8.89.368c-823.873 33.451-2128.883 2.909-2270.623-.57-3.741-.09-5.905-.625-7.165-1.28a3 3 0 0 1-.427-.24 4 4 0 0 1-.338-.242c-.925-.87-.692-2.113-.401-2.893.085-.208.159-.42.266-.615l.018-.033c.532-.962 1.228-1.705 1.228-1.705l.942-1.111.846-.999 1.685-1.988-.018-.007c69.348-82.529 75.376-132.423 75.376-132.423s.071-1.234.196-3.502c0-.08 2.979-402.227 1.392-409.887-.499-2.731-1.025-5.283-1.588-7.596-19.53-80.291-62.931-128.031-62.931-128.031l-10.85-47.741C-1159.379-278.28-7.095-725.305-7.095-725.305v32.551l-1.181 2.102c-44.129 63.09-60.415 100.978-66.204 117.928l-.42.747c-2.5 6.772-3.744 37.471-4.2 79.978-.127 17.203-.187 36.456-.196 56.932.299 134.915 4.955 319.931 4.955 319.931 5.708 11.546 20.663 38.233 54.253 80.432C-9.391-21.772-.564-11.323 2.123-7.817l.022.026h-.002c.286.373.524.693.662.9C6.729-1.005.455-.06 0 0" style="fill:#252e61;fill-opacity:1;fill-rule:nonzero;stroke:none" transform="translate(2868 1346.665)"/><path d="M0 0v179.027l23.599 51.267v121.25L-6.51 400.37s-48.826 138.339 107.416 214.018c0 0 19.53 8.138 23.599 0s-.814-83.003 43.129-130.201c0 0 215.647 83.003 453.264 0 0 0 51.267 40.688 42.316 129.388 0 0 0 18.626 26.854 4.43s141.594-87.434 109.044-217.635l11.392-213.205h-24.412s-3.255.813.813-5.697c4.069-6.51 40.688-118.808-24.412-168.448l-1.628-47.198L.814-18.716Z" style="fill:#262f66;fill-opacity:1;fill-rule:nonzero;stroke:none" transform="translate(1331.58 1350.76)"/><path d="M0 0h-129.388v21.971L-380.839 4.069v159.497l34.72 61.845s3.798 7.324-.542 7.324h-13.834l-17.632 127.218s-80.426 107.552 60.761 211.713c0 0-24.82-109.858 128.574-187.572 0 0 6.103-1.627 5.289-6.51-.813-4.882-6.51-20.751-6.51-20.751l46.791.407-13.427 33.364 187.572.407-14.648-32.957 152.173-.407-15.461 21.565s-5.696 6.917-.814 8.544c4.883 1.628 124.505 50.046 123.692 182.282 0 0 149.46-111.892 46.926-223.105l-.542-9.765 36.479.542V214.019l-36.479.542s2.712-45.57 25.497-78.121l-23.327-.542s36.89-69.441-16.818-110.671S80.833-43.129 1.628 22.514l-2.713 2.713z" style="fill:#fff;fill-opacity:1;fill-rule:nonzero;stroke:none" transform="translate(1748.225 1362.153)"/><path d="M0 0h-129.388v21.971L-380.839 4.069v159.497l34.72 61.845s3.798 7.324-.542 7.324h-13.834l-17.632 127.218s-80.426 107.552 60.761 211.713c0 0-24.82-109.858 128.574-187.572 0 0 6.103-1.627 5.289-6.51-.813-4.882-6.51-20.751-6.51-20.751l46.791.407-13.427 33.364 187.572.407-14.648-32.957 152.173-.407-15.461 21.565s-5.696 6.917-.814 8.544c4.883 1.628 124.505 50.046 123.692 182.282 0 0 149.46-111.892 46.926-223.105l-.542-9.765 36.479.542V214.019l-36.479.542s2.712-45.57 25.497-78.121l-23.327-.542s36.89-69.441-16.818-110.671S80.833-43.129 1.628 22.514l-2.713 2.713z" style="fill:none;stroke:#fff;stroke-width:1;stroke-linecap:round;stroke-linejoin:round;stroke-miterlimit:10;stroke-dasharray:none;stroke-opacity:1" transform="translate(1748.225 1362.153)"/><path d="m0 0 221.343 6.51 18.716-43.943L256.334 6.51l198.557 4.883-7.73-54.522s.407-7.731 7.73 1.627 26.448 34.585 45.164 37.84 11.393 3.255 71.204 2.441c0 0 15.461 4.476 54.522-47.198 0 0 7.324-8.951 6.917 0s.016 53.708.016 53.708h35.382l48.826-39.874s3.662-4.882 4.069.814-4.069 30.109-4.069 30.109l219.715 2.034s14.648 10.172 41.909 10.986 57.37 1.628 86.258-38.246c0 0 6.51-8.138 6.917-.407s0 29.702 0 29.702l476.863-7.731v-34.178s-1.221-4.882 4.883 1.221c6.103 6.103 39.06 42.315 78.934 46.791 0 0 17.496 3.255 37.433-4.069s55.743-28.888 57.37-30.516c1.628-1.627 11.8-8.951 13.02-14.647l1.221-5.697s3.255-4.475 6.917 2.442 23.599 50.046 70.797 52.894 331.2-5.696 331.2-5.696-53.301-48.419-54.522-65.101-2.441-193.675-2.441-193.675l-37.026 11.8s-5.289-1.628-3.255-6.104c2.034-4.475 34.178-29.702 37.026-54.928 2.848-25.227 2.034-219.715 2.034-219.715s1.221-18.717 8.138-31.737 45.164-72.425 59.404-80.969c0 0-387.349 175.365-1074.162 180.79l-.814 25.227s-41.23-37.162-86.53-35.534c-45.299 1.627-46.384 7.052-46.384 7.052s-291.054-9.765-365.107-25.226c0 0-16.546-27.126-57.505-26.041s-61.032 30.923-61.032 30.923-3.798 2.713-4.069-3.255c-.271-5.967.814-21.158.814-21.158S190.42-548.474-10.308-643.412c0 0 43.943 46.655 54.251 110.671l.542 444.855S29.838-18.445 0 0" style="fill:#fff;fill-opacity:1;fill-rule:nonzero;stroke:none" transform="translate(657.787 1310.886)"/><path d="m0 0 221.343 6.51 18.716-43.943L256.334 6.51l198.557 4.883-7.73-54.522s.407-7.731 7.73 1.627 26.448 34.585 45.164 37.84 11.393 3.255 71.204 2.441c0 0 15.461 4.476 54.522-47.198 0 0 7.324-8.951 6.917 0s.016 53.708.016 53.708h35.382l48.826-39.874s3.662-4.882 4.069.814-4.069 30.109-4.069 30.109l219.715 2.034s14.648 10.172 41.909 10.986 57.37 1.628 86.258-38.246c0 0 6.51-8.138 6.917-.407s0 29.702 0 29.702l476.863-7.731v-34.178s-1.221-4.882 4.883 1.221c6.103 6.103 39.06 42.315 78.934 46.791 0 0 17.496 3.255 37.433-4.069s55.743-28.888 57.37-30.516c1.628-1.627 11.8-8.951 13.02-14.647l1.221-5.697s3.255-4.475 6.917 2.442 23.599 50.046 70.797 52.894 331.2-5.696 331.2-5.696-53.301-48.419-54.522-65.101-2.441-193.675-2.441-193.675l-37.026 11.8s-5.289-1.628-3.255-6.104c2.034-4.475 34.178-29.702 37.026-54.928 2.848-25.227 2.034-219.715 2.034-219.715s1.221-18.717 8.138-31.737 45.164-72.425 59.404-80.969c0 0-387.349 175.365-1074.162 180.79l-.814 25.227s-41.23-37.162-86.53-35.534c-45.299 1.627-46.384 7.052-46.384 7.052s-291.054-9.765-365.107-25.226c0 0-16.546-27.126-57.505-26.041s-61.032 30.923-61.032 30.923-3.798 2.713-4.069-3.255c-.271-5.967.814-21.158.814-21.158S190.42-548.474-10.308-643.412c0 0 43.943 46.655 54.251 110.671l.542 444.855S29.838-18.445 0 0z" style="fill:none;stroke:#fff;stroke-width:.5;stroke-linecap:butt;stroke-linejoin:miter;stroke-miterlimit:10;stroke-dasharray:none;stroke-opacity:1" transform="translate(657.787 1310.886)"/><path d="M0 0s25.227-91.955 122.064-140.78l-28.482-39.875h123.692V-242.5h-48.012s-6.51-.814-1.628-5.29c4.883-4.475 35.806-37.026 41.909-45.977s29.295-56.556 29.295-56.556v-3.662h-90.327l.407-37.433h97.244v210.357s-7.73 32.957-14.241 32.957h92.769s-11.799-20.344-12.206-30.109 0-301.905 0-301.905h-67.542l-.407 38.247-249.011-21.158v70.797l85.445.814-.407 37.433-85.038-.407v4.475s18.717 45.164 26.854 55.336 37.84 43.943 43.943 45.571c6.104 1.627 1.628 6.51-2.034 6.51s-55.743-.814-55.743-.814l-9.358 62.659 49.64-.406s5.696 1.22 0 4.068c-5.697 2.849-54.929 32.551-69.577 68.356C-35.399-72.831-15.461-10.986 0 0" style="fill:#262f66;fill-opacity:1;fill-rule:nonzero;stroke:none" transform="translate(1405.632 1865.056)"/><path d="M0 0h-65.596v6.917s4.679 28.888 8.138 35.602 21.971 39.874 21.971 39.874 3.662 3.459 5.696 0c2.035-3.458 21.158-37.229 21.158-37.229L0 6.917v-5.9z" style="fill:#fff;fill-opacity:1;fill-rule:nonzero;stroke:none" transform="translate(1555.045 1512.902)"/><path d="M0 0h198.15s-2.441-43.943-4.882-58.184-13.02-49.639-19.123-55.742c-6.104-6.104-10.579-32.551-176.586-47.605l6.103 56.149s75.68 13.02 88.293 19.53 21.971 11.8 24.006 16.276c2.034 4.475 3.255 6.916-4.476 6.51S-.407-63.473-.407-63.473z" style="fill:#262f66;fill-opacity:1;fill-rule:nonzero;stroke:none" transform="translate(1753.107 1683.588)"/><path d="M0 0s65.508 37.433 90.734 93.582c0 0 10.579 24.413 11.8 34.585 1.22 10.172 8.544-4.069 8.544-4.069s51.674-89.513-15.461-141.594l-.814-53.708h35.264l2.576-60.015H95.21v-36.415s0-30.516 11.393-41.502c0 0-58.184 10.172-76.494 11.393L27.668-36.212z" style="fill:#262f66;fill-opacity:1;fill-rule:nonzero;stroke:none" transform="translate(1944.34 1734.041)"/><path d="M0 0c-1.277-.08-2.603-.155-3.944-.228h-47.84c-1.341.073-2.668.148-3.944.228-.697.089-44.717 5.767-47.273 17.675 2.556 11.908 46.576 17.585 47.273 17.675 1.276.079 2.603.155 3.944.228h47.84c1.341-.073 2.667-.149 3.944-.228.697-.09 44.716-5.767 47.273-17.675C44.716 5.767.697.089 0 0m120.918 42.782c-.462.973-.95 1.896-1.492 2.696-2.83 4.178-4.325 8.625-9.834 13.405C93.201 71.52 30.073 86.245 10.874 90.511c-21.135 2.166-38.738 2.437-38.738 2.437s-17.603-.271-38.738-2.437c-19.199-4.266-82.327-18.991-98.718-31.628-5.509-4.78-7.004-9.227-9.835-13.405-.542-.8-1.03-1.723-1.491-2.696-.119-.41-3.595-12.509-3.595-25.107 0-12.599 3.476-24.698 3.595-25.107.461-.973.949-1.896 1.491-2.697 2.831-4.178 4.326-8.624 9.835-13.404 16.391-12.637 79.519-27.362 98.718-31.629 21.135-2.165 38.738-2.436 38.738-2.436s17.603.271 38.738 2.436c19.199 4.267 82.327 18.992 98.718 31.629 5.509 4.78 7.004 9.226 9.834 13.404.542.801 1.03 1.724 1.492 2.697.118.409 3.594 12.508 3.594 25.107s-3.476 24.697-3.594 25.107" style="fill:#262f66;fill-opacity:1;fill-rule:nonzero;stroke:none" transform="translate(1929.076 1430.33)"/><path d="M0 0s16.275 22.243 16.275 48.826c0 26.582-1.085 453.535-1.085 453.535s-4.882 37.975-17.903 43.4c53.166 0 138.34 4.34 138.34 4.34l42.315-210.492s5.425-8.138 7.053.542c1.627 8.681 37.975 213.205 37.975 213.205l132.914 4.34s-16.275-29.295-16.275-45.028.542-378.669.542-378.669 1.085-26.583 17.903-42.315c0 0-124.234-19.531-131.286-26.041l1.085 189.877s-2.713 3.798-4.34-.542c-1.628-4.34-45.842-153.529-45.842-153.529L129.659 244.67s-4.34 2.713-4.34-1.085.542-202.897.542-202.897S15.733 9.765 0 0" style="fill:#262f66;fill-opacity:1;fill-rule:nonzero;stroke:none" transform="translate(720.718 736.372)"/><path d="M0 0v215.917s-1.085 13.563 7.595 26.041 59.676 73.781 59.676 73.781 15.19 12.477 30.923 11.935c15.732-.543 20.615.542 29.295-5.425 8.68-5.968 50.453-47.741 68.356-83.546 0 0 5.967-13.563 5.967-28.753V0s-.542-15.19-6.51-24.955c-5.967-9.765-53.165-66.186-67.271-76.494-14.105-10.307-18.488-12.477-27.147-12.477s-23.848-1.085-29.273 7.052S6.51-33.635 4.883-22.243C4.883-22.243 0-13.02 0 0" style="fill:#262f66;fill-opacity:1;fill-rule:nonzero;stroke:none" transform="translate(1092.335 951.747)"/><path d="M0 0v158.683s-.814 16.275 5.289 24.413l6.104 8.137s6.103 9.359 13.02 0 4.882-7.323 4.882-7.323 4.883-4.883 4.476-18.31.024-163.159.024-163.159V-9.358s-1.245-11.393-6.127-15.869c-4.883-4.475-10.172-10.985-17.496-3.255C2.848-20.751 1.628-18.31 1.628-18.31S0-16.682 0 0" style="fill:#fff;fill-opacity:1;fill-rule:nonzero;stroke:none" transform="translate(1175.338 980.093)"/><path d="M0 0s22.243 29.295 22.785 53.708 0 367.277 0 367.277l112.842-139.424s5.425-7.595 5.967-.543c.543 7.053-2.712 88.971-2.712 88.971s-7.053 34.721-15.733 40.146l118.266 4.34s-16.275-25.498-16.817-37.976-1.085-311.398-1.085-311.398 10.307-41.773 17.902-46.656c0 0-71.068-1.627-101.448-5.967.542 55.335 1.085 173.602 1.085 173.602l-32.008 35.805s-3.798.543-3.798-5.425 1.085-206.152 1.085-206.152S3.255 0 0 0" style="fill:#262f66;fill-opacity:1;fill-rule:nonzero;stroke:none" transform="translate(1297.402 861.691)"/><path d="m0 0-80.833 20.073s-2.713-67.271 2.712-78.121 25.498-39.061 72.153-65.643c0 0 24.956-6.51 62.931 0 0 0 18.988 9.222 30.381 21.7 11.392 12.477 40.687 45.57 42.858 64.016 2.169 18.445 2.169 63.473-2.171 72.695-4.34 9.223-12.477 35.263-27.125 44.486s-42.858 24.413-55.335 29.838-48.284 20.073-47.741 34.72c.542 14.648 1.628 39.061 8.138 41.231 0 0 9.222 11.935 22.785 2.712 0 0 5.967-1.627 7.595-13.563 1.627-11.935 1.627-33.635 1.627-33.635s71.611-8.951 79.749-13.427c0 32.957 1.085 74.188-5.968 83.953-7.052 9.765-54.793 71.611-69.441 72.696 0 0-43.943 7.087-60.76-8.663-16.818-15.75-59.405-64.033-63.067-90.073-3.661-26.041-4.204-81.376 2.306-95.482s8.68-30.922 59.676-49.91C31.465 20.615 27.668 19.53 36.348 10.308c0 0 18.445-17.361 11.393-40.688C40.688-53.708 8.68-37.433 8.68-37.433S-1.628-26.04 0 0" style="fill:#262f66;fill-opacity:1;fill-rule:nonzero;stroke:none" transform="translate(1626.703 1004.37)"/><path d="M0 0v109.044l202.355-5.425V-6.51s-23.871 22.243-59.133 19.53c.542-47.74 0-247.925 0-247.925s1.627-42.858 22.785-57.506c0 0-129.117 9.223-133.999 3.798 0 0 28.753 29.838 28.753 50.995 0 21.158-1.628 252.808-1.628 252.808S27.668 16.818 0 0" style="fill:#262f66;fill-opacity:1;fill-rule:nonzero;stroke:none" transform="translate(1761.787 1173.632)"/><path d="m0 0-189.877 6.51 2.712-331.471s1.085-47.56-25.498-67.452c0 0 155.157-2.532 212.663-17.722 1.085 63.474 0 102.534 0 102.534s-10.308-10.308-29.838-10.85c-19.53-.543-36.89 3.255-36.89 3.255s-31.466 7.595-35.806 5.425l-3.556 73.238 87.645-5.425-.543 84.631-84.088 4.34-3.014 73.239 65.402-3.255s24.413-5.968 29.295-9.223S.482-97.109.482-97.109z" style="fill:#262f66;fill-opacity:1;fill-rule:nonzero;stroke:none" transform="translate(2174.635 1270.198)"/><path d="M0 0v310.856s2.17 26.04 21.158 52.623c18.987 26.583 62.93 53.166 62.93 53.166s21.701 9.222 43.943-7.053c22.243-16.275 64.016-53.708 72.154-72.696 8.137-18.987 14.647-55.335 7.052-73.78 0 0-19.53-54.251-48.283-77.036 0 0-7.595-7.053-.542-12.478 7.052-5.425 41.23-29.295 43.4-59.133s1.085-97.651 1.085-97.651 3.798-45.571 17.903-54.251c0 0-47.198 14.648-101.991 17.903V85.173s-3.798 33.093-28.211 37.433c0 0-7.052 2.17-7.052-4.882 0-7.053.542-130.202.542-130.202S43.029-3.669 0 0" style="fill:#262f66;fill-opacity:1;fill-rule:nonzero;stroke:none" transform="translate(2200.675 860.063)"/><path d="M0 0v62.931s.542 22.242 14.648 22.785c14.647-4.34 27.125-22.243 27.125-22.243s7.595-10.307-2.712-25.498C28.753 22.785 7.595 0 7.595 0S0-13.02 0 0" style="fill:#fff;fill-opacity:1;fill-rule:nonzero;stroke:none" transform="translate(2284.763 1087.916)"/><path d="m0 0-108.23 31.737V-69.17s1.627-77.307 96.837-97.651 196.116-57.777 203.44-61.845c7.324-4.069-4.882-2.442-8.137 32.55s-.814 209.136-.814 209.136.542 59.133-76.493 91.684c-77.036 32.55-97.652 54.25-97.652 54.25s-11.392 26.041 9.223 50.996 46.655 0 46.655 0 16.276-14.105 11.936-54.793c0 0 90.056-17.36 106.331-24.956-.543 47.199-1.085 145.392-1.085 145.392s.542 19.53 17.36 40.146l-211.035 8.137s-97.108 3.798-96.566-84.631l.542-88.428s-8.137-55.878 37.433-80.834C-24.684 45.028 58.319 3.798 68.084-11.935c9.766-15.733 13.021-49.368 1.628-58.048S45.56-78.121 45.56-78.121 13.291-79.206 6.239-55.336C-.814-31.465 0 0 0 0" style="fill:#262f66;fill-opacity:1;fill-rule:nonzero;stroke:none" transform="translate(2535.13 965.852)"/></g></svg>